<?xml version="1.0" encoding="UTF-8"?> <svg xmlns="http://www.w3.org/2000/svg" width="963" height="256" viewBox="0 0 963 256" fill="none"><path d="M287.541 161V92.1451H305.761V117.78H326.312V92.1451H344.532V161H326.312V133.67H305.761V161H287.541ZM374.366 162.271C368.575 162.271 364.373 160.329 361.76 156.445C359.147 152.49 357.841 147.229 357.841 140.661V108.035H376.061V138.331C376.061 141.721 376.485 143.98 377.332 145.11C378.25 146.24 379.592 146.805 381.358 146.805C383.052 146.805 384.465 146.452 385.595 145.746C386.725 145.04 387.855 143.839 388.985 142.144V108.035H407.205V161H392.374L391.103 154.009H390.679C388.561 156.551 386.195 158.564 383.582 160.047C381.04 161.53 377.968 162.271 374.366 162.271ZM438.785 182.822C434.76 182.822 431.052 182.363 427.662 181.445C424.273 180.597 421.554 179.22 419.506 177.313C417.528 175.407 416.54 172.864 416.54 169.686C416.54 165.52 419.011 162.13 423.955 159.517V159.093C422.601 158.092 421.42 156.875 420.459 155.492C419.541 154.009 419.082 152.172 419.082 149.983C419.082 148.147 419.612 146.346 420.671 144.581C421.801 142.815 423.249 141.297 425.014 140.026V139.602C423.107 138.331 421.413 136.53 419.93 134.199C418.517 131.798 417.811 129.079 417.811 126.043C417.811 121.664 418.87 118.063 420.989 115.238C423.178 112.342 426.003 110.224 429.463 108.882C432.924 107.47 436.596 106.763 440.48 106.763C443.587 106.763 446.412 107.187 448.954 108.035H468.658V121.17H461.031C461.242 121.806 461.419 122.618 461.56 123.606C461.772 124.595 461.878 125.619 461.878 126.678C461.878 130.845 460.925 134.235 459.018 136.848C457.111 139.39 454.534 141.262 451.285 142.462C448.036 143.663 444.435 144.263 440.48 144.263C438.715 144.263 436.737 144.016 434.548 143.521C433.7 144.298 433.277 145.322 433.277 146.593C433.277 147.723 433.842 148.535 434.972 149.03C436.172 149.524 438.079 149.771 440.692 149.771H448.637C455.275 149.771 460.395 150.866 463.997 153.055C467.669 155.174 469.505 158.669 469.505 163.542C469.505 167.356 468.234 170.71 465.692 173.606C463.22 176.501 459.689 178.761 455.098 180.385C450.508 182.01 445.07 182.822 438.785 182.822ZM440.48 133.458C442.175 133.458 443.552 132.858 444.611 131.657C445.671 130.457 446.2 128.585 446.2 126.043C446.2 123.571 445.671 121.77 444.611 120.64C443.552 119.44 442.175 118.84 440.48 118.84C438.785 118.84 437.408 119.44 436.349 120.64C435.289 121.77 434.76 123.571 434.76 126.043C434.76 128.585 435.289 130.457 436.349 131.657C437.408 132.858 438.785 133.458 440.48 133.458ZM441.751 171.593C444.717 171.593 447.189 171.134 449.166 170.216C451.144 169.368 452.132 168.203 452.132 166.72C452.132 165.308 451.497 164.425 450.226 164.072C449.025 163.719 447.295 163.542 445.035 163.542H440.904C438.785 163.542 437.161 163.472 436.031 163.33C434.972 163.26 434.054 163.119 433.277 162.907C432.006 164.178 431.37 165.449 431.37 166.72C431.37 168.415 432.323 169.651 434.23 170.428C436.208 171.205 438.715 171.593 441.751 171.593ZM496.613 182.822C492.587 182.822 488.88 182.363 485.49 181.445C482.1 180.597 479.381 179.22 477.333 177.313C475.356 175.407 474.367 172.864 474.367 169.686C474.367 165.52 476.839 162.13 481.782 159.517V159.093C480.428 158.092 479.247 156.875 478.287 155.492C477.368 154.009 476.909 152.172 476.909 149.983C476.909 148.147 477.439 146.346 478.498 144.581C479.628 142.815 481.076 141.297 482.842 140.026V139.602C480.935 138.331 479.24 136.53 477.757 134.199C476.344 131.798 475.638 129.079 475.638 126.043C475.638 121.664 476.698 118.063 478.816 115.238C481.005 112.342 483.83 110.224 487.291 108.882C490.751 107.47 494.423 106.763 498.307 106.763C501.415 106.763 504.24 107.187 506.782 108.035H526.485V121.17H518.858C519.07 121.806 519.246 122.618 519.388 123.606C519.599 124.595 519.705 125.619 519.705 126.678C519.705 130.845 518.752 134.235 516.845 136.848C514.939 139.39 512.361 141.262 509.112 142.462C505.864 143.663 502.262 144.263 498.307 144.263C496.542 144.263 494.565 144.016 492.375 143.521C491.528 144.298 491.104 145.322 491.104 146.593C491.104 147.723 491.669 148.535 492.799 149.03C494 149.524 495.906 149.771 498.519 149.771H506.464C513.102 149.771 518.222 150.866 521.824 153.055C525.496 155.174 527.332 158.669 527.332 163.542C527.332 167.356 526.061 170.71 523.519 173.606C521.047 176.501 517.516 178.761 512.926 180.385C508.336 182.01 502.898 182.822 496.613 182.822ZM498.307 133.458C500.002 133.458 501.379 132.858 502.439 131.657C503.498 130.457 504.028 128.585 504.028 126.043C504.028 123.571 503.498 121.77 502.439 120.64C501.379 119.44 500.002 118.84 498.307 118.84C496.613 118.84 495.235 119.44 494.176 120.64C493.117 121.77 492.587 123.571 492.587 126.043C492.587 128.585 493.117 130.457 494.176 131.657C495.235 132.858 496.613 133.458 498.307 133.458ZM499.579 171.593C502.545 171.593 505.016 171.134 506.994 170.216C508.971 169.368 509.96 168.203 509.96 166.72C509.96 165.308 509.324 164.425 508.053 164.072C506.853 163.719 505.122 163.542 502.862 163.542H498.731C496.613 163.542 494.988 163.472 493.858 163.33C492.799 163.26 491.881 163.119 491.104 162.907C489.833 164.178 489.197 165.449 489.197 166.72C489.197 168.415 490.151 169.651 492.058 170.428C494.035 171.205 496.542 171.593 499.579 171.593ZM535.161 161V108.035H553.381V161H535.161ZM544.271 101.467C541.305 101.467 538.903 100.655 537.067 99.0311C535.231 97.3361 534.313 95.1111 534.313 92.3571C534.313 89.6031 535.231 87.4131 537.067 85.7891C538.903 84.0941 541.305 83.2471 544.271 83.2471C547.237 83.2471 549.638 84.0941 551.474 85.7891C553.31 87.4131 554.228 89.6031 554.228 92.3571C554.228 95.1111 553.31 97.3361 551.474 99.0311C549.638 100.655 547.237 101.467 544.271 101.467ZM565.678 161V108.035H580.508L581.779 114.39H582.203C584.321 112.342 586.723 110.577 589.406 109.094C592.16 107.54 595.338 106.763 598.94 106.763C604.801 106.763 609.003 108.741 611.546 112.696C614.159 116.58 615.465 121.806 615.465 128.373V161H597.245V130.704C597.245 127.314 596.821 125.054 595.974 123.924C595.126 122.794 593.785 122.229 591.948 122.229C590.254 122.229 588.841 122.582 587.711 123.289C586.581 123.995 585.31 124.984 583.898 126.255V161H565.678ZM646.612 182.822C642.587 182.822 638.879 182.363 635.489 181.445C632.1 180.597 629.381 179.22 627.333 177.313C625.355 175.407 624.367 172.864 624.367 169.686C624.367 165.52 626.838 162.13 631.782 159.517V159.093C630.428 158.092 629.247 156.875 628.286 155.492C627.368 154.009 626.909 152.172 626.909 149.983C626.909 148.147 627.439 146.346 628.498 144.581C629.628 142.815 631.076 141.297 632.841 140.026V139.602C630.934 138.331 629.239 136.53 627.756 134.199C626.344 131.798 625.638 129.079 625.638 126.043C625.638 121.664 626.697 118.063 628.816 115.238C631.005 112.342 633.83 110.224 637.29 108.882C640.751 107.47 644.423 106.763 648.307 106.763C651.414 106.763 654.239 107.187 656.781 108.035H676.484V121.17H668.857C669.069 121.806 669.246 122.618 669.387 123.606C669.599 124.595 669.705 125.619 669.705 126.678C669.705 130.845 668.752 134.235 666.845 136.848C664.938 139.39 662.36 141.262 659.112 142.462C655.863 143.663 652.262 144.263 648.307 144.263C646.541 144.263 644.564 144.016 642.375 143.521C641.527 144.298 641.104 145.322 641.104 146.593C641.104 147.723 641.669 148.535 642.799 149.03C643.999 149.524 645.906 149.771 648.519 149.771H656.464C663.102 149.771 668.222 150.866 671.824 153.055C675.496 155.174 677.332 158.669 677.332 163.542C677.332 167.356 676.061 170.71 673.518 173.606C671.047 176.501 667.516 178.761 662.925 180.385C658.335 182.01 652.897 182.822 646.612 182.822ZM648.307 133.458C650.002 133.458 651.379 132.858 652.438 131.657C653.498 130.457 654.027 128.585 654.027 126.043C654.027 123.571 653.498 121.77 652.438 120.64C651.379 119.44 650.002 118.84 648.307 118.84C646.612 118.84 645.235 119.44 644.176 120.64C643.116 121.77 642.587 123.571 642.587 126.043C642.587 128.585 643.116 130.457 644.176 131.657C645.235 132.858 646.612 133.458 648.307 133.458ZM649.578 171.593C652.544 171.593 655.016 171.134 656.993 170.216C658.971 169.368 659.959 168.203 659.959 166.72C659.959 165.308 659.324 164.425 658.053 164.072C656.852 163.719 655.122 163.542 652.862 163.542H648.731C646.612 163.542 644.988 163.472 643.858 163.33C642.799 163.26 641.88 163.119 641.104 162.907C639.832 164.178 639.197 165.449 639.197 166.72C639.197 168.415 640.15 169.651 642.057 170.428C644.034 171.205 646.541 171.593 649.578 171.593ZM707.85 161V92.1451H752.764V107.399H726.07V120.534H748.951V135.788H726.07V161H707.85ZM772.689 162.271C769.37 162.271 766.51 161.53 764.109 160.047C761.817 158.535 759.955 156.455 758.707 154.009C757.435 151.537 756.8 148.853 756.8 145.958C756.8 140.449 759.06 136.142 763.579 133.034C768.099 129.856 775.444 127.738 785.613 126.678C785.189 123.006 782.717 121.17 778.198 121.17C776.291 121.17 774.278 121.558 772.16 122.335C770.041 123.041 767.605 124.136 764.85 125.619L758.495 113.755C762.238 111.495 766.016 109.765 769.829 108.564C773.706 107.365 777.741 106.758 781.799 106.763C788.72 106.763 794.123 108.741 798.007 112.696C801.891 116.58 803.833 122.865 803.833 131.551V161H789.003L787.732 155.915H787.308C785.189 157.822 782.929 159.376 780.528 160.576C778.198 161.706 775.585 162.271 772.689 162.271ZM779.045 148.288C780.528 148.288 781.764 147.97 782.753 147.335C783.741 146.629 784.695 145.746 785.613 144.687V137.483C781.305 138.119 778.304 139.072 776.609 140.343C774.985 141.615 774.172 142.992 774.172 144.475C774.172 147.017 775.797 148.288 779.045 148.288ZM839.652 162.271C834.638 162.271 830.118 161.176 826.093 158.987C822.067 156.798 818.854 153.655 816.453 149.559C814.122 145.393 812.957 140.379 812.957 134.517C812.957 128.656 814.264 123.677 816.877 119.581C819.56 115.414 823.056 112.237 827.364 110.047C831.671 107.858 836.332 106.763 841.346 106.763C844.524 106.763 847.385 107.258 849.927 108.246C852.54 109.235 854.835 110.577 856.812 112.272L848.338 123.924C847.208 122.936 846.184 122.265 845.266 121.912C844.354 121.559 843.384 121.38 842.406 121.382C839.016 121.382 836.368 122.582 834.461 124.984C832.554 127.314 831.601 130.492 831.601 134.517C831.601 138.543 832.59 141.756 834.567 144.157C836.544 146.487 838.945 147.653 841.77 147.653C843.253 147.653 844.701 147.335 846.113 146.699C847.561 146.014 848.944 145.198 850.245 144.263L857.236 156.127C854.623 158.458 851.728 160.082 848.55 161C845.372 161.847 842.406 162.271 839.652 162.271ZM887.046 162.271C881.89 162.271 877.229 161.176 873.063 158.987C868.967 156.798 865.718 153.655 863.317 149.559C860.916 145.393 859.716 140.379 859.716 134.517C859.716 128.797 860.916 123.889 863.317 119.793C865.789 115.626 868.967 112.413 872.851 110.153C876.735 107.893 880.831 106.763 885.139 106.763C890.365 106.763 894.673 107.929 898.062 110.259C901.523 112.519 904.065 115.591 905.689 119.475C907.384 123.359 908.232 127.667 908.232 132.399C908.232 133.952 908.126 135.471 907.914 136.954C907.773 138.366 907.631 139.39 907.49 140.026H877.3C878.147 143.204 879.666 145.428 881.855 146.699C884.044 147.9 886.622 148.5 889.588 148.5C892.978 148.5 896.579 147.441 900.393 145.322L906.325 156.127C903.5 158.104 900.322 159.623 896.791 160.682C893.26 161.741 890.012 162.271 887.046 162.271ZM877.088 128.161H892.766C892.766 126.113 892.236 124.348 891.177 122.865C890.188 121.311 888.317 120.534 885.563 120.534C883.585 120.534 881.82 121.135 880.266 122.335C878.712 123.536 877.653 125.478 877.088 128.161Z" fill="#000B1B"></path><g clip-path="url(#clip0_1504_179)"><path d="M174.285 124.488C174.285 114.669 161.616 129.632 145.95 129.698C130.288 129.632 117.614 114.669 117.614 124.488C117.614 130.997 120.714 141.583 129.037 148.005C130.692 142.28 139.795 137.692 141.095 138.352C142.949 139.289 142.845 141.89 145.95 144.18C149.058 141.89 148.951 139.289 150.805 138.352C152.105 137.692 161.207 142.28 162.863 148.005C171.185 141.583 174.285 130.997 174.285 124.488Z" fill="#0E1116"></path><g opacity="0.5"><path d="M150.805 138.351C148.951 139.289 149.059 141.89 145.95 144.18C142.842 141.89 142.949 139.289 141.095 138.351C139.795 137.692 130.692 142.28 129.037 148.004C133.244 151.253 138.788 153.435 145.946 153.488H145.958C153.112 153.435 158.657 151.253 162.863 148.004C161.208 142.28 152.105 137.692 150.805 138.351Z" fill="black"></path></g><path d="M196.462 110.84C200.339 110.84 203.48 107.683 203.48 103.788C203.48 99.8927 200.339 96.7358 196.462 96.7358C192.586 96.7358 189.444 99.8927 189.444 103.788C189.444 107.683 192.586 110.84 196.462 110.84Z" fill="black"></path><path d="M95.3225 110.84C99.1989 110.84 102.34 107.683 102.34 103.788C102.34 99.8927 99.1989 96.7358 95.3225 96.7358C91.4462 96.7358 88.3047 99.8927 88.3047 103.788C88.3047 107.683 91.4462 110.84 95.3225 110.84Z" fill="black"></path><path d="M171.718 100.718C174.5 101.701 175.606 107.43 178.414 105.936C183.735 103.103 185.753 96.4825 182.926 91.1477C180.098 85.8172 173.493 83.7928 168.172 86.6261C162.85 89.4594 160.832 96.0801 163.66 101.415C164.993 103.933 169.233 99.8384 171.718 100.718Z" fill="#0E1116"></path><path d="M120.319 100.718C117.536 101.701 116.43 107.43 113.623 105.937C108.302 103.103 106.283 96.4828 109.111 91.1481C111.939 85.8133 118.544 83.7931 123.865 86.6264C129.186 89.4597 131.205 96.0804 128.377 101.415C127.043 103.933 122.804 99.8388 120.319 100.718Z" fill="#0E1116"></path><path d="M239.366 182.054C242.131 177.831 241.603 173.737 241.087 171.766C240.426 169.256 239.06 167.17 237.207 165.672C238.086 164.212 238.676 162.636 238.928 160.877C239.46 157.185 238.234 153.493 235.473 150.485C233.322 148.146 230.279 146.855 226.915 146.855C226.758 146.855 226.597 146.868 226.44 146.876C228.958 138.87 230.317 130.354 230.317 121.522C230.313 74.8409 192.424 37 145.686 37C98.9467 37 61.0585 74.8409 61.0585 121.522C61.0585 130.362 62.4208 138.882 64.939 146.893C64.65 146.872 64.3652 146.855 64.0886 146.855C60.72 146.855 57.6817 148.146 55.531 150.485C52.7692 153.489 51.539 157.181 52.0757 160.877C52.3316 162.636 52.9178 164.212 53.7971 165.672C51.9436 167.17 50.5772 169.256 49.9167 171.766C49.4007 173.732 48.8681 177.831 51.6381 182.054C51.4606 182.328 51.2955 182.614 51.1427 182.908C49.4791 186.061 49.3718 189.625 50.8414 192.947C53.0665 197.979 58.6023 201.941 69.3437 206.193C76.0272 208.84 82.141 210.532 82.1988 210.544C91.0371 212.834 99.0251 213.996 105.944 213.996C117.28 213.996 125.734 210.897 131.15 204.795C135.873 205.612 140.732 206.044 145.69 206.044C150.648 206.044 155.279 205.633 159.903 204.849C165.319 210.918 173.761 213.996 185.064 213.996C191.983 213.996 199.975 212.834 208.809 210.544C208.863 210.528 214.976 208.84 221.664 206.193C232.41 201.937 237.941 197.975 240.166 192.947C241.636 189.629 241.529 186.065 239.865 182.908C239.712 182.614 239.547 182.328 239.37 182.054H239.366ZM127.361 195.088C127.361 195.088 127.328 195.08 127.307 195.075C126.898 195.768 126.448 196.473 125.953 197.195C124.467 199.348 122.489 200.958 120.19 202.136C120.198 202.136 120.207 202.14 120.215 202.144C120.132 202.181 120.046 202.215 119.963 202.252C109.288 207.541 91.8958 203.762 84.1927 201.787C84.0523 201.75 73.5132 198.809 65.8843 194.963C64.5675 194.308 63.3497 193.624 62.2929 192.922C62.2516 192.898 62.2144 192.869 62.1731 192.844C62.1401 192.823 62.1071 192.798 62.0741 192.777C59.0936 190.778 57.3762 188.654 58.4537 186.629C62.1484 179.689 80.2255 197.502 81.9593 191.342C83.6932 185.186 55.5722 182.597 57.9418 173.678C60.3114 164.76 85.5467 185.796 87.1732 183.211C88.7956 180.623 87.908 178.814 76.473 171.973C65.0422 165.129 57.0212 161.014 61.5828 156.102C66.1444 151.19 87.0948 170.04 87.0948 170.04C87.0948 170.04 93.7906 176.927 95.6896 173.761C95.8423 173.508 95.8547 173.177 95.7515 172.782C94.4305 169.24 85.266 161.399 80.3122 155.393C78.5165 153.269 77.2244 151.356 76.9602 149.929C75.8579 143.894 79.1481 142.251 83.817 145.18C88.4859 148.108 97.4936 163.42 100.792 169.377C103.104 173.554 108.854 172.683 109.123 169.601C109.094 168.327 108.177 166.722 105.816 164.959C102.802 162.706 101.238 159.952 100.643 157.301C99.4131 152.377 101.63 147.752 104.322 147.333C108.413 146.694 110.212 153.634 110.212 153.634C110.212 153.634 115.022 165.581 123.286 173.745C130.089 180.469 131.576 186.103 128.533 192.757C128.203 193.524 127.815 194.3 127.365 195.096L127.361 195.088ZM154.776 196.776C151.795 197.133 148.761 197.32 145.686 197.32C142.61 197.32 139.336 197.121 136.24 196.735C140.818 186.576 138.523 177.093 129.313 167.9C123.274 161.872 119.261 152.987 118.423 151.037C116.739 145.263 112.281 138.845 104.871 138.845C104.247 138.845 103.616 138.895 102.996 138.994C99.7516 139.505 96.9156 141.371 94.8887 144.176C92.7008 141.459 90.5748 139.297 88.6552 138.082C85.7572 136.248 82.8634 135.315 80.048 135.315C76.8239 135.315 73.9177 136.53 71.767 138.746C70.479 133.212 69.7978 127.446 69.7978 121.522C69.7978 79.6612 103.777 45.7239 145.69 45.7239C187.603 45.7239 221.581 79.6612 221.581 121.522C221.581 127.562 220.871 133.432 219.534 139.061C217.358 136.642 214.332 135.315 210.956 135.315C208.14 135.315 205.246 136.244 202.348 138.082C200.425 139.301 198.303 141.463 196.115 144.176C194.088 141.367 191.252 139.505 188.007 138.994C187.388 138.895 186.756 138.845 186.133 138.845C178.723 138.845 174.265 145.263 172.58 151.037C171.742 152.987 167.73 161.872 161.69 167.9C152.468 177.105 150.181 186.596 154.784 196.776H154.776ZM209.04 191.338C210.774 197.498 228.851 179.685 232.546 186.625C233.623 188.646 231.906 190.774 228.93 192.769C228.892 192.794 228.855 192.819 228.818 192.844C228.781 192.869 228.748 192.889 228.711 192.914C227.654 193.619 226.428 194.304 225.107 194.959C217.474 198.805 206.943 201.746 206.803 201.779C199.104 203.754 181.741 207.529 171.061 202.26C171.02 202.244 170.979 202.227 170.937 202.211C170.942 202.211 170.946 202.211 170.95 202.206C168.588 201.024 166.557 199.394 165.042 197.195C164.564 196.502 164.13 195.822 163.734 195.154C163.717 195.158 163.697 195.163 163.68 195.167C163.21 194.341 162.805 193.532 162.462 192.736C159.424 186.086 160.914 180.457 167.713 173.737C175.978 165.573 180.787 153.626 180.787 153.626C180.787 153.626 182.583 146.685 186.678 147.324C189.37 147.743 191.59 152.369 190.356 157.293C189.762 159.943 188.197 162.702 185.184 164.95C182.826 166.713 181.906 168.315 181.877 169.588C182.145 172.67 187.892 173.546 190.208 169.368C193.506 163.411 202.514 148.1 207.183 145.171C211.851 142.243 215.137 143.885 214.039 149.921C213.779 151.348 212.487 153.256 210.696 155.376C205.742 161.387 196.573 169.231 195.252 172.774C195.149 173.168 195.161 173.496 195.314 173.749C197.213 176.914 203.909 170.028 203.909 170.028C203.909 170.028 224.859 151.174 229.421 156.09C233.982 161.001 225.961 165.12 214.531 171.961C203.096 178.802 202.208 180.61 203.83 183.199C205.453 185.787 230.692 164.747 233.062 173.666C235.431 182.585 207.306 185.173 209.044 191.33L209.04 191.338Z" fill="black"></path></g><defs><clipPath id="clip0_1504_179"><rect width="192" height="177" fill="white" transform="translate(49.5 37)"></rect></clipPath></defs></svg> 